<svg width="69" height="73" viewBox="0 0 56 56" fill="none" xmlns="http://www.w3.org/2000/svg">
<circle cx="28" cy="28" r="28" fill="#6D2E88"/>
<path d="M32.9419 29.1766C32.8939 29.1766 32.8422 29.1766 32.7942 29.1766C29.4185 29.1766 26.0392 29.1766 22.6635 29.1766C22.2905 29.1766 22.0541 28.9617 22.0061 28.5791C21.9581 28.2138 22.1982 27.8528 22.5158 27.8141C22.5786 27.8055 22.6451 27.8098 22.7079 27.8098C26.0724 27.8098 29.4333 27.8098 32.7979 27.8098C32.8459 27.8098 32.8939 27.8098 32.9493 27.8098C32.9345 27.7281 32.8865 27.7023 32.8533 27.6593C31.8672 26.5075 30.8774 25.3599 29.8876 24.208C29.5478 23.8126 29.6549 23.2066 30.0944 23.0389C30.3308 22.9487 30.5376 23.0174 30.7149 23.2237C31.0029 23.559 31.2873 23.8899 31.5754 24.2252C32.6391 25.463 33.7027 26.7009 34.7664 27.9387C35.0803 28.3041 35.0766 28.6823 34.7627 29.0476C33.4183 30.6121 32.074 32.1766 30.7296 33.7411C30.5598 33.9388 30.3677 34.0506 30.1203 33.9775C29.6771 33.8443 29.5182 33.2296 29.8322 32.8428C30.0464 32.5763 30.2754 32.3227 30.497 32.0649C31.2836 31.1494 32.0703 30.2339 32.857 29.3227C32.8902 29.284 32.9308 29.2582 32.9678 29.2281C32.9604 29.2109 32.9493 29.1938 32.9419 29.1766Z" fill="white" stroke="white"/>
</svg>