<svg width="65" height="72" viewBox="0 0 65 72" fill="none" xmlns="http://www.w3.org/2000/svg">
<path fill-rule="evenodd" clip-rule="evenodd" d="M63.4591 56.0538C57.2739 64.5086 47.2782 70 36 70C17.2223 70 2 54.7777 2 36C2 17.2223 17.2223 2 36 2C47.2782 2 57.2739 7.49136 63.4591 15.9462C63.6996 15.7118 63.9443 15.4817 64.1931 15.2561C57.8204 6.60945 47.5653 1 36 1C16.67 1 1 16.67 1 36C1 55.33 16.67 71 36 71C47.5653 71 57.8204 65.3905 64.1931 56.7439C63.9443 56.5183 63.6996 56.2882 63.4591 56.0538Z" fill="#0AF0DD"/>
<path d="M63.4591 56.0538L63.8081 55.6957C63.7044 55.5946 63.5619 55.5435 63.4175 55.5555C63.2731 55.5676 63.1411 55.6417 63.0556 55.7586L63.4591 56.0538ZM63.4591 15.9462L63.0556 16.2414C63.1411 16.3583 63.2731 16.4324 63.4175 16.4445C63.5619 16.4565 63.7044 16.4054 63.8081 16.3043L63.4591 15.9462ZM64.1931 15.2561L64.529 15.6264C64.719 15.454 64.7478 15.1659 64.5956 14.9594L64.1931 15.2561ZM64.1931 56.7439L64.5956 57.0406C64.7477 56.8341 64.719 56.546 64.529 56.3736L64.1931 56.7439ZM36 70.5C47.4445 70.5 57.5873 64.927 63.8627 56.349L63.0556 55.7586C56.9605 64.0903 47.112 69.5 36 69.5V70.5ZM1.5 36C1.5 55.0538 16.9462 70.5 36 70.5V69.5C17.4985 69.5 2.5 54.5015 2.5 36H1.5ZM36 1.5C16.9462 1.5 1.5 16.9462 1.5 36H2.5C2.5 17.4985 17.4985 2.5 36 2.5V1.5ZM63.8627 15.651C57.5873 7.07297 47.4445 1.5 36 1.5V2.5C47.112 2.5 56.9605 7.90975 63.0556 16.2414L63.8627 15.651ZM63.8081 16.3043C64.0443 16.0741 64.2847 15.8481 64.529 15.6264L63.8571 14.8857C63.604 15.1154 63.3549 15.3496 63.1102 15.5881L63.8081 16.3043ZM64.5956 14.9594C58.1327 6.19044 47.7309 0.5 36 0.5V1.5C47.3997 1.5 57.5081 7.02847 63.7906 15.5527L64.5956 14.9594ZM36 0.5C16.3939 0.5 0.5 16.3939 0.5 36H1.5C1.5 16.9462 16.9462 1.5 36 1.5V0.5ZM0.5 36C0.5 55.6061 16.3939 71.5 36 71.5V70.5C16.9462 70.5 1.5 55.0538 1.5 36H0.5ZM36 71.5C47.7309 71.5 58.1327 65.8096 64.5956 57.0406L63.7906 56.4473C57.5081 64.9715 47.3997 70.5 36 70.5V71.5ZM64.529 56.3736C64.2847 56.152 64.0443 55.9259 63.8081 55.6957L63.1101 56.4119C63.3549 56.6504 63.6039 56.8846 63.8571 57.1143L64.529 56.3736Z" fill="#6D2E88"/>
<path d="M40.4666 37.3004C40.4075 37.3004 40.3439 37.3004 40.2848 37.3004C36.1303 37.3004 31.9712 37.3004 27.8166 37.3004C27.3575 37.3004 27.0666 37.0464 27.0075 36.5943C26.9485 36.1625 27.2439 35.7357 27.6348 35.69C27.7121 35.6799 27.7939 35.6849 27.8712 35.6849C32.0121 35.6849 36.1485 35.6849 40.2894 35.6849C40.3485 35.6849 40.4075 35.6849 40.4757 35.6849C40.4575 35.5884 40.3985 35.5579 40.3575 35.5071C39.1439 34.1457 37.9257 32.7893 36.7075 31.4278C36.2894 30.9604 36.4212 30.2441 36.9621 30.046C37.253 29.9393 37.5075 30.0206 37.7257 30.2645C38.0803 30.6607 38.4303 31.0519 38.7848 31.4481C40.0939 32.9112 41.403 34.3743 42.7121 35.8373C43.0985 36.2691 43.0939 36.7162 42.7076 37.148C41.053 38.9972 39.3985 40.8463 37.7439 42.6955C37.5348 42.9292 37.2985 43.0613 36.9939 42.9749C36.4485 42.8174 36.253 42.091 36.6394 41.6337C36.903 41.3188 37.1848 41.0191 37.4575 40.7142C38.4257 39.6322 39.3939 38.5501 40.3621 37.4731C40.403 37.4274 40.453 37.3969 40.4985 37.3614C40.4894 37.3411 40.4757 37.3207 40.4666 37.3004Z" fill="#6D2E88" stroke="#6D2E88"/>
</svg>